<svg id="Capa_1" data-name="Capa 1" xmlns="http://www.w3.org/2000/svg" viewBox="0 0 360 392"><defs><style>.cls-1{fill:#666;}.cls-2{fill:#4d4d4d;}.cls-3{fill:#ff0;}.cls-4{fill:#f90000;}.cls-5{fill:none;stroke:#000;stroke-miterlimit:10;stroke-width:2px;}.cls-6{font-size:25.47px;font-family:Dosis-ExtraBold, Dosis;font-weight:700;}.cls-7{letter-spacing:0em;}.cls-8{letter-spacing:0em;}.cls-9{letter-spacing:0em;}</style></defs><title>enConstruccion</title><rect class="cls-1" x="22.33" y="32.52" width="15" height="350"/><rect class="cls-2" x="37.33" y="32.52" width="15" height="350"/><rect class="cls-1" x="7.33" y="367.52" width="30" height="15"/><rect class="cls-2" x="37.33" y="367.52" width="30" height="15"/><rect class="cls-1" x="302.41" y="32.52" width="15" height="350"/><rect class="cls-2" x="317.41" y="32.52" width="15" height="350"/><rect class="cls-1" x="287.41" y="367.52" width="30" height="15"/><rect class="cls-2" x="317.41" y="367.52" width="30" height="15"/><rect class="cls-3" x="4.33" y="102.91" width="350" height="58.5"/><polygon points="4.33 139.12 4.33 161.28 32.17 161.28 90.42 103.03 40.42 103.03 4.33 139.12"/><polygon points="139.92 103.03 189.92 103.03 131.67 161.28 81.67 161.28 139.92 103.03"/><polygon points="239.92 103.03 289.92 103.03 231.67 161.28 181.67 161.28 239.92 103.03"/><polygon points="354.33 103.03 338.87 103.03 280.62 161.28 330.62 161.28 354.33 137.57 354.33 103.03"/><rect class="cls-3" x="4.33" y="217.91" width="350" height="58.5"/><polygon points="4.33 254.12 4.33 276.28 32.17 276.28 90.42 218.03 40.42 218.03 4.33 254.12"/><polygon points="139.92 218.03 189.92 218.03 131.67 276.28 81.67 276.28 139.92 218.03"/><polygon points="239.92 218.03 289.92 218.03 231.67 276.28 181.67 276.28 239.92 218.03"/><polygon points="354.33 218.03 338.87 218.03 280.62 276.28 330.62 276.28 354.33 252.57 354.33 218.03"/><path class="cls-4" d="M21.83,32.66h-3v5h37v-5h-3L49.47,13.14A5.59,5.59,0,0,0,44,8.5H30.44a5.59,5.59,0,0,0-5.52,4.72Z"/><path class="cls-4" d="M301.91,32.66h-3v5h37v-5h-3l-3.37-19.52A5.59,5.59,0,0,0,324,8.5H310.52A5.59,5.59,0,0,0,305,13.21Z"/><rect class="cls-3" x="69.3" y="132.16" width="220.08" height="115" rx="21.63" ry="21.63"/><rect class="cls-5" x="82.5" y="142.41" width="193.67" height="94.49" rx="21.63" ry="21.63"/><text class="cls-6" transform="translate(106.6 182.38)">Con<tspan class="cls-7" x="40.89" y="0">t</tspan><tspan class="cls-8" x="50.03" y="0">enido en </tspan><tspan x="2.75" y="30.57">Constru</tspan><tspan class="cls-9" x="87.5" y="30.57">c</tspan><tspan x="98.66" y="30.57">ción</tspan></text></svg>